<svg xmlns="http://www.w3.org/2000/svg" viewBox="0 0 100 100" width="100" height="100">
  <defs><linearGradient id="g" x1="0" y1="0" x2="100" y2="100" gradientUnits="userSpaceOnUse"><stop stop-color="#3ff0d8"></stop><stop offset="1" stop-color="#2a8bf0"></stop></linearGradient></defs>
  <rect width="100" height="100" rx="24" fill="url(#g)"></rect>
  <g transform="translate(0,25)" fill="none" stroke="#ffffff" stroke-width="8" stroke-linecap="round">
    <path d="M50.00 25.00 L49.15 23.99 L48.29 22.99 L47.43 21.99 L46.56 21.00 L45.68 20.02 L44.78 19.05 L43.86 18.09 L42.91 17.14 L41.95 16.22 L40.95 15.32 L39.92 14.45 L38.86 13.61 L37.75 12.81 L36.61 12.06 L35.43 11.36 L34.20 10.72 L32.93 10.15 L31.61 9.66 L30.26 9.26 L28.86 8.96 L27.42 8.78 L25.96 8.73 L24.47 8.82 L22.98 9.06 L21.49 9.46 L20.01 10.04 L18.57 10.81 L17.19 11.76 L15.89 12.90 L14.69 14.22 L13.63 15.71 L12.72 17.36 L11.98 19.14 L11.44 21.03 L11.11 23.00 L11.00 25.00 L11.11 27.00 L11.44 28.97 L11.98 30.86 L12.72 32.64 L13.63 34.29 L14.69 35.78 L15.89 37.10 L17.19 38.24 L18.57 39.19 L20.01 39.96 L21.49 40.54 L22.98 40.94 L24.47 41.18 L25.96 41.27 L27.42 41.22 L28.86 41.04 L30.26 40.74 L31.61 40.34 L32.93 39.85 L34.20 39.28 L35.43 38.64 L36.61 37.94 L37.75 37.19 L38.86 36.39 L39.92 35.55 L40.95 34.68 L41.95 33.78 L42.91 32.86 L43.86 31.91 L44.78 30.95 L45.68 29.98 L46.56 29.00 L47.43 28.01 L48.29 27.01 L49.15 26.01 L50.00 25.00"></path>
    <path d="M50.00 25.00 L50.85 23.99 L51.71 22.99 L52.57 21.99 L53.44 21.00 L54.32 20.02 L55.22 19.05 L56.14 18.09 L57.09 17.14 L58.05 16.22 L59.05 15.32 L60.08 14.45 L61.14 13.61 L62.25 12.81 L63.39 12.06 L64.57 11.36 L65.80 10.72 L67.07 10.15 L68.39 9.66 L69.74 9.26 L71.14 8.96 L72.58 8.78 L74.04 8.73 L75.53 8.82 L77.02 9.06 L78.51 9.46 L79.99 10.04 L81.43 10.81 L82.81 11.76 L84.11 12.90 L85.31 14.22 L86.37 15.71 L87.28 17.36 L88.02 19.14 L88.56 21.03 L88.89 23.00 L89.00 25.00 L88.89 27.00 L88.56 28.97 L88.02 30.86 L87.28 32.64 L86.37 34.29 L85.31 35.78 L84.11 37.10 L82.81 38.24 L81.43 39.19 L79.99 39.96 L78.51 40.54 L77.02 40.94 L75.53 41.18 L74.04 41.27 L72.58 41.22 L71.14 41.04 L69.74 40.74 L68.39 40.34 L67.07 39.85 L65.80 39.28 L64.57 38.64 L63.39 37.94 L62.25 37.19 L61.14 36.39 L60.08 35.55 L59.05 34.68 L58.05 33.78 L57.09 32.86 L56.14 31.91 L55.22 30.95 L54.32 29.98 L53.44 29.00 L52.57 28.01 L51.71 27.01 L50.85 26.01 L50.00 25.00"></path>
  </g>
</svg>